# Blender v2.69 (sub 0) OBJ File: 'wall.blend'
# www.blender.org
mtllib wall.mtl
o Cube
v 0.250000 -0.500000 -0.999999
v 0.250000 -0.500000 1.000000
v -0.250000 -0.500000 0.999999
v -0.250000 -0.500000 -1.000000
v 0.250000 0.500000 -0.999999
v 0.250000 0.500000 1.000000
v -0.250000 0.500000 0.999999
v -0.250000 0.500000 -1.000000
v 0.250000 0.500000 0.000001
v 0.000000 0.500000 -0.999999
v -0.000000 0.500000 1.000000
v -0.250000 0.500000 -0.000000
v -0.000000 0.500000 0.000000
v -0.250000 0.500000 -0.500000
v 0.250000 0.500000 -0.499999
v 0.000000 0.750000 -0.500000
v 0.250000 0.500000 0.500000
v -0.250000 0.500000 0.499999
v -0.000000 0.750000 0.500000
v 0.250000 -0.500000 0.010310
v 0.250000 0.012389 -0.999999
v 0.250000 0.028285 1.000000
v 0.250000 0.020376 0.004945
v 0.500000 0.262451 0.499209
v 0.500000 0.257872 -0.500792
v 0.500000 -0.242132 -0.494210
v 0.500000 -0.237474 0.505733
v -0.250000 -0.500000 -0.003266
v -0.250000 0.034919 0.999999
v -0.250000 0.031601 -0.001530
v -0.250000 0.028292 -1.000000
v -0.500000 0.265063 -0.501234
v -0.500000 0.266535 0.498758
v -0.500000 -0.233479 0.499604
v -0.500000 -0.234912 -0.500396
vn 0.000000 -1.000000 0.000000
vn -0.436436 0.872871 0.218218
vn 0.894143 0.000000 -0.447782
vn -0.000001 -0.000000 1.000000
vn -0.894870 -0.000000 0.446327
vn 0.000001 0.000000 -1.000000
vn 0.436436 0.872872 0.218218
vn 0.436436 0.872871 -0.218218
vn -0.436436 0.872872 -0.218218
vn 0.896470 0.000000 -0.443105
vn 0.893745 -0.004624 -0.448551
vn -0.894569 0.000000 0.446931
vn 0.893249 -0.004634 -0.449538
vn 0.688824 0.724929 0.000000
vn 0.894710 -0.000000 0.446649
vn 0.689722 -0.724051 0.005755
vn 0.695707 0.718325 0.000000
vn 0.895585 0.004586 0.444866
vn 0.694786 -0.719194 0.005716
vn 0.718871 0.695122 -0.005525
vn 0.895081 0.004597 0.445880
vn 0.717975 -0.696069 0.000000
vn 0.723247 0.690567 -0.005489
vn 0.892348 -0.000000 0.451349
vn 0.724172 -0.689620 0.000000
vn -0.893706 -0.001465 0.448651
vn -0.894593 -0.001459 0.446879
vn -0.684813 0.728719 0.000000
vn -0.684812 0.728719 0.000000
vn -0.893984 0.000000 -0.448098
vn -0.685091 -0.728454 0.002414
vn -0.682525 0.730863 0.000000
vn -0.894255 0.001462 -0.447556
vn -0.682228 -0.731136 0.002422
vn -0.729629 0.683839 -0.002266
vn -0.895138 0.001456 -0.445786
vn -0.729350 -0.684140 -0.000000
vn -0.727211 0.686411 -0.002274
vn -0.894285 0.000000 -0.447498
vn -0.727507 -0.686100 -0.000000
usemtl Material
s off
f 1//1 20//1 2//1 3//1 28//1 4//1
f 19//2 18//2 7//2 11//2
f 21//3 5//3 25//3
f 2//4 22//4 6//4 11//4 7//4 29//4 3//4
f 29//5 7//5 33//5
f 5//6 21//6 1//6 4//6 31//6 8//6 10//6
f 17//7 19//7 11//7 6//7
f 15//7 16//7 13//7 9//7
f 16//2 14//2 12//2 13//2
f 5//8 10//8 16//8 15//8
f 10//9 8//9 14//9 16//9
f 13//9 12//9 18//9 19//9
f 9//8 13//8 19//8 17//8
f 1//10 21//10 26//10
f 20//11 23//11 27//11
f 3//12 29//12 34//12
f 23//13 9//13 24//13
f 9//14 17//14 24//14
f 17//14 6//14 24//14
f 6//15 22//15 24//15
f 22//16 23//16 24//16
f 5//17 15//17 25//17
f 15//17 9//17 25//17
f 9//18 23//18 25//18
f 23//19 21//19 25//19
f 21//20 23//20 26//20
f 23//21 20//21 26//21
f 20//22 1//22 26//22
f 23//23 22//23 27//23
f 22//24 2//24 27//24
f 2//25 20//25 27//25
f 28//26 30//26 35//26
f 30//27 12//27 32//27
f 12//28 14//28 32//28
f 14//29 8//29 32//29
f 8//30 31//30 32//30
f 31//31 30//31 32//31
f 7//32 18//32 33//32
f 18//32 12//32 33//32
f 12//33 30//33 33//33
f 30//34 29//34 33//34
f 29//35 30//35 34//35
f 30//36 28//36 34//36
f 28//37 3//37 34//37
f 30//38 31//38 35//38
f 31//39 4//39 35//39
f 4//40 28//40 35//40
